<?xml version="1.0" standalone="no"?>
<!DOCTYPE svg PUBLIC "-//W3C//DTD SVG 20010904//EN"
 "http://www.w3.org/TR/2001/REC-SVG-20010904/DTD/svg10.dtd">
<svg version="1.0" xmlns="http://www.w3.org/2000/svg"
 width="700.000000pt" height="700.000000pt" viewBox="0 0 700.000000 700.000000"
 preserveAspectRatio="xMidYMid meet">
<metadata>
Created by potrace 1.11, written by Peter Selinger 2001-2013
</metadata>
<g transform="translate(0.000000,700.000000) scale(0.100000,-0.100000)"
fill="#000000" stroke="none">
<path d="M812 5895 c-60 -18 -106 -57 -131 -108 -21 -43 -21 -54 -21 -646 l0
-603 26 -49 c15 -26 45 -61 67 -76 36 -25 49 -28 122 -28 73 0 86 3 122 28 22
15 52 50 67 76 l26 49 0 466 0 466 463 0 c426 0 465 2 502 19 169 77 175 306
10 394 -40 22 -47 22 -625 24 -469 2 -593 -1 -628 -12z"/>
<path d="M4985 5901 c-206 -51 -232 -324 -40 -412 37 -17 76 -19 503 -19 l462
0 0 -466 0 -466 26 -49 c15 -26 45 -61 67 -76 36 -25 49 -28 122 -28 73 0 86
3 122 28 22 15 52 50 67 77 l26 49 -2 614 -3 615 -30 43 c-18 26 -50 53 -80
68 l-49 26 -581 2 c-319 1 -593 -2 -610 -6z"/>
<path d="M2092 4789 c-50 -25 -99 -80 -113 -129 -7 -23 -9 -422 -7 -1181 l3
-1145 28 -42 c79 -120 244 -136 343 -34 67 69 64 16 64 1241 0 759 -3 1119
-11 1146 -36 134 -186 204 -307 144z"/>
<path d="M2964 4785 c-57 -28 -96 -77 -113 -140 -8 -27 -11 -387 -11 -1146 0
-1225 -3 -1172 64 -1241 99 -102 264 -86 343 34 l28 42 0 1166 0 1166 -28 42
c-64 97 -181 129 -283 77z"/>
<path d="M3842 4789 c-50 -25 -99 -80 -113 -129 -7 -23 -9 -422 -7 -1181 l3
-1145 28 -42 c79 -120 244 -136 343 -34 67 69 64 16 64 1241 0 759 -3 1119
-11 1146 -36 134 -186 204 -307 144z"/>
<path d="M4714 4785 c-57 -28 -96 -77 -113 -140 -8 -27 -11 -387 -11 -1146 0
-1225 -3 -1172 64 -1241 99 -102 264 -86 343 34 l28 42 0 1166 0 1166 -28 42
c-64 97 -181 129 -283 77z"/>
<path d="M825 2619 c-58 -14 -109 -53 -139 -109 l-26 -49 2 -614 3 -615 30
-43 c18 -26 50 -53 80 -68 l49 -26 601 0 c595 0 600 0 640 22 80 42 119 109
119 198 -1 90 -45 158 -129 196 -37 17 -75 19 -502 19 l-463 0 0 466 0 466
-26 49 c-31 56 -81 94 -144 108 -25 6 -47 10 -50 10 -3 -1 -23 -5 -45 -10z"/>
<path d="M6075 2619 c-58 -14 -109 -53 -139 -108 l-26 -49 0 -466 0 -466 -462
0 c-428 0 -466 -2 -503 -19 -84 -38 -128 -106 -129 -196 0 -89 39 -156 119
-198 40 -22 45 -22 640 -22 l601 0 49 26 c32 16 61 41 80 70 l30 44 3 613 2
613 -26 49 c-31 57 -81 95 -144 109 -25 6 -47 10 -50 10 -3 -1 -23 -5 -45 -10z"/>
</g>
</svg>
